<svg width="671" height="21" viewBox="0 0 671 21" fill="none" xmlns="http://www.w3.org/2000/svg">
<path d="M90.2975 0.227234C75.1037 0.227234 71.7671 8.5689 60.5058 8.5689C48.8871 8.5689 46.1462 0.227234 30.7141 0.227234C17.5462 0.227234 13.435 6.36432 5.33165 8.09223C2.82915 8.62848 0.922485 10.7139 0.922485 13.276V14.4677C0.922485 17.8043 3.96123 20.1877 7.23832 19.5918C17.3079 17.7447 21.1808 11.7864 30.7141 11.7864C42.3925 11.7864 45.0141 20.1281 60.5058 20.1281C75.9379 20.1281 78.9171 11.7864 90.2975 11.7864C100.248 11.7864 103.704 17.9235 114.19 19.6514C117.289 20.1877 120.089 17.566 120.089 14.4677V13.2164C120.089 10.6543 118.182 8.5689 115.68 8.03265C107.457 6.4239 103.525 0.227234 90.2975 0.227234Z" fill="#0E4879"/>
<path d="M200.708 0.227234C185.515 0.227234 182.178 8.5689 170.917 8.5689C159.298 8.5689 156.557 0.227234 141.125 0.227234C127.957 0.227234 123.846 6.36432 115.743 8.09223C113.24 8.62848 111.333 10.7139 111.333 13.276V14.4677C111.333 17.8043 114.372 20.1877 117.649 19.5918C127.719 17.7447 131.592 11.7864 141.125 11.7864C152.803 11.7864 155.425 20.1281 170.917 20.1281C186.349 20.1281 189.328 11.7864 200.708 11.7864C210.659 11.7864 214.115 17.9235 224.601 19.6514C227.7 20.1877 230.5 17.566 230.5 14.4677V13.2164C230.5 10.6543 228.593 8.5689 226.091 8.03265C217.868 6.4239 213.936 0.227234 200.708 0.227234Z" fill="#0E4879"/>
<path d="M310.875 0.227234C295.681 0.227234 292.345 8.5689 281.083 8.5689C269.465 8.5689 266.724 0.227234 251.292 0.227234C238.124 0.227234 234.012 6.36432 225.909 8.09223C223.407 8.62848 221.5 10.7139 221.5 13.276V14.4677C221.5 17.8043 224.539 20.1877 227.816 19.5918C237.885 17.7447 241.758 11.7864 251.292 11.7864C262.97 11.7864 265.592 20.1281 281.083 20.1281C296.515 20.1281 299.495 11.7864 310.875 11.7864C320.825 11.7864 324.281 17.9235 334.768 19.6514C337.866 20.1877 340.667 17.566 340.667 14.4677V13.2164C340.667 10.6543 338.76 8.5689 336.258 8.03265C328.035 6.4239 324.102 0.227234 310.875 0.227234Z" fill="#0E4879"/>
<path d="M420.375 0.227234C405.181 0.227234 401.845 8.5689 390.583 8.5689C378.965 8.5689 376.224 0.227234 360.792 0.227234C347.624 0.227234 343.513 6.36432 335.409 8.09223C332.907 8.62848 331 10.7139 331 13.276V14.4677C331 17.8043 334.039 20.1877 337.316 19.5918C347.385 17.7447 351.258 11.7864 360.792 11.7864C372.47 11.7864 375.092 20.1281 390.583 20.1281C406.015 20.1281 408.995 11.7864 420.375 11.7864C430.325 11.7864 433.781 17.9235 444.268 19.6514C447.366 20.1877 450.167 17.566 450.167 14.4677V13.2164C450.167 10.6543 448.26 8.5689 445.758 8.03265C437.535 6.4239 433.602 0.227234 420.375 0.227234Z" fill="#0E4879"/>
<path d="M530.786 0.227234C515.592 0.227234 512.255 8.5689 500.994 8.5689C489.375 8.5689 486.635 0.227234 471.203 0.227234C458.035 0.227234 453.923 6.36432 445.82 8.09223C443.318 8.62848 441.411 10.7139 441.411 13.276V14.4677C441.411 17.8043 444.45 20.1877 447.727 19.5918C457.796 17.7447 461.669 11.7864 471.203 11.7864C482.881 11.7864 485.503 20.1281 500.994 20.1281C516.426 20.1281 519.405 11.7864 530.786 11.7864C540.736 11.7864 544.192 17.9235 554.679 19.6514C557.777 20.1877 560.578 17.566 560.578 14.4677V13.2164C560.578 10.6543 558.671 8.5689 556.168 8.03265C547.946 6.4239 544.013 0.227234 530.786 0.227234Z" fill="#0E4879"/>
<path d="M640.953 0.227234C625.759 0.227234 622.422 8.5689 611.161 8.5689C599.542 8.5689 596.801 0.227234 581.369 0.227234C568.201 0.227234 564.09 6.36432 555.987 8.09223C553.484 8.62848 551.578 10.7139 551.578 13.276V14.4677C551.578 17.8043 554.616 20.1877 557.893 19.5918C567.963 17.7447 571.836 11.7864 581.369 11.7864C593.047 11.7864 595.669 20.1281 611.161 20.1281C626.593 20.1281 629.572 11.7864 640.953 11.7864C650.903 11.7864 654.359 17.9235 664.845 19.6514C667.944 20.1877 670.744 17.566 670.744 14.4677V13.2164C670.744 10.6543 668.838 8.5689 666.335 8.03265C658.113 6.4239 654.18 0.227234 640.953 0.227234Z" fill="#0E4879"/>
</svg>
